<svg version="1.2" xmlns="http://www.w3.org/2000/svg" viewBox="0 0 256 256" width="256" height="256">
	<style>
		.s0 { fill: #1a1a1a } 
	</style>
	<path id="Path 0" fill-rule="evenodd" class="s0" d="m183.38 0.03c0.25 0.27 1.16 3.45 2.02 7.07 1.22 5.16 1.62 8.69 1.87 16.43 0.23 7.12 0.05 12.06-0.65 17.78-0.53 4.35-1.45 9.33-2.05 11.05-0.59 1.73-1.77 4.08-2.62 5.23-0.85 1.15-3.52 3.45-5.94 5.12-2.42 1.66-8.57 5.5-13.66 8.52-5.1 3.02-12.22 7.68-15.84 10.35-3.61 2.67-8.72 7.05-11.35 9.73-2.63 2.68-5.57 6.34-6.54 8.13-0.97 1.8-2.11 4.74-2.54 6.55-0.43 1.81-0.68 3.15-0.54 2.99 0.13-0.17 1.48-1.98 2.99-4.04 1.51-2.05 4.7-5.78 7.08-8.29 2.38-2.51 6.48-6.24 9.11-8.29 2.63-2.05 7.07-5.22 9.86-7.03 2.79-1.82 12.21-7.4 20.91-12.4 8.71-5.01 20.55-12.05 26.3-15.64 5.75-3.59 14.41-9.27 19.25-12.62 4.84-3.35 12.47-9.04 16.96-12.66 4.49-3.61 9.4-7.46 10.92-8.54 1.52-1.08 2.96-1.95 3.21-1.94 0.25 0.01 0.45 1.3 0.46 2.86 0.01 2.01-0.55 3.97-1.91 6.72-1.41 2.86-3.52 5.47-7.93 9.86-3.31 3.29-8.56 7.78-11.68 9.98-3.13 2.19-13.67 8.92-23.42 14.93-9.76 6.02-17.7 11.02-17.63 11.11 0.06 0.09 3.34-1.2 7.29-2.86 3.94-1.67 10.53-4.81 14.63-6.97 4.11-2.16 10.12-5.58 13.35-7.59 3.24-2.01 9.42-6.28 13.75-9.5 4.32-3.21 8-5.68 8.16-5.5 0.16 0.19-0.04 1.74-0.46 3.45-0.42 1.71-1.45 4.59-2.3 6.4-0.86 1.81-3.07 4.86-4.92 6.79-1.86 1.93-6.2 5.37-9.65 7.66-3.45 2.28-9.23 5.58-12.85 7.34-3.61 1.76-11.81 5.41-18.22 8.1-6.41 2.7-12.93 5.48-14.49 6.18-1.56 0.7-2.77 1.35-2.69 1.45 0.08 0.1 3.11-0.52 6.72-1.37 3.62-0.85 10.34-2.8 14.94-4.33 4.89-1.63 12.77-4.97 18.97-8.04 5.84-2.89 10.74-5.26 10.91-5.26 0.16 0 0.29 0.61 0.29 1.35 0 0.74-0.64 2.69-1.42 4.33-0.78 1.64-2.73 4.23-4.33 5.74-1.6 1.52-4.12 3.56-5.6 4.55-1.48 0.99-4.7 2.81-7.17 4.05-2.46 1.23-7.17 3.12-10.45 4.2-3.29 1.08-11.45 3.27-18.13 4.86-9.87 2.35-11.83 2.98-10.46 3.36 0.93 0.25 5.33 0.17 9.76-0.19 4.44-0.36 12.78-1.58 18.53-2.72 5.75-1.13 10.59-1.93 10.75-1.77 0.17 0.16-1.72 2.28-4.18 4.7-3.01 2.95-5.76 5.01-8.37 6.25-2.13 1.02-5.63 2.3-7.76 2.84-2.75 0.7-7.65 1.08-16.74 1.3-11 0.26-12.63 0.42-11.35 1.08 0.82 0.43 3.58 1.2 6.13 1.73 2.54 0.52 7.25 0.98 10.45 1.02 3.21 0.04 7.57 0.24 13.55 0.83l-2.66 2.27c-1.47 1.25-4.15 3-5.96 3.88-2.95 1.45-3.92 1.61-9.56 1.58-3.98-0.02-8.62-0.51-12.7-1.34-3.53-0.72-6.69-1.31-7.02-1.31-0.33 0-0.39 0.32-0.15 0.71 0.25 0.4 1.8 1.31 3.44 2.02 1.64 0.72 5.68 2.03 8.96 2.91 3.29 0.88 6.38 1.82 6.87 2.09 0.7 0.39 0.44 0.73-1.19 1.54-1.17 0.58-4.07 1.17-6.57 1.33-2.47 0.16-6.77 0-9.56-0.35-2.8-0.36-6.43-0.81-11.06-1.39l1.5 1.29c0.82 0.71 3.1 2.07 5.07 3.02 1.98 0.96 5.88 2.16 8.67 2.67 2.79 0.52 5.95 1.46 7.02 2.11 1.07 0.64 3.77 3.65 6.01 6.69 2.24 3.04 5.95 8.36 8.25 11.81 2.3 3.45 5.9 9.23 7.99 12.84 2.1 3.62 5 9.13 6.46 12.25 1.45 3.13 3.8 8.64 5.22 12.25 1.42 3.62 3.52 9.67 4.66 13.45 1.14 3.78 2.77 10.23 3.61 14.34 0.84 4.11 1.86 10.56 2.26 14.34 0.58 5.38 0.59 7.88 0.03 11.5-0.4 2.55-0.99 5.17-1.32 5.83-0.33 0.66-1.07 1.21-1.64 1.22-0.58 0.01-1.45-0.44-1.94-1.01-0.54-0.62-1.9-6.63-3.36-14.82-1.36-7.57-3.07-16.2-3.81-19.15-0.74-2.96-2.28-8.07-3.42-11.36-1.14-3.28-3.19-8.32-4.56-11.2-1.36-2.87-2.53-5.16-2.6-5.08-0.06 0.08 0.95 4.18 2.24 9.11 1.29 4.93 2.92 12.33 3.62 16.44 1.02 5.96 1.26 9.73 1.2 18.67-0.05 7.63-0.31 11.69-0.82 12.71-0.47 0.96-1.23 1.51-2.09 1.5-0.87-0.01-1.87-0.8-2.85-2.26-0.83-1.23-2.06-3.99-2.72-6.13-0.67-2.13-1.73-8.58-2.37-14.34-0.64-5.75-1.71-12.87-2.38-15.83-0.66-2.96-1.47-5.78-1.78-6.28-0.38-0.58-0.58 4.59-0.59 14.94-0.02 11.5-0.23 16.25-0.77 17.33-0.54 1.06-1.31 1.54-2.68 1.65-1.61 0.12-2.13-0.18-3.12-1.8-0.65-1.07-1.59-3.75-2.09-5.97-0.62-2.78-0.92-7.54-0.95-15.24-0.02-6.16-0.24-11.74-0.49-12.4-0.29-0.78-1.11 2.87-2.35 10.46-1.36 8.27-2.21 11.96-2.95 12.73-0.6 0.63-1.67 1.01-2.53 0.9-0.96-0.12-1.78-0.81-2.33-1.98-0.46-0.99-1.25-3.94-1.75-6.57-0.87-4.61-0.84-5.22 0.76-16.73 0.92-6.58 1.57-13.48 1.45-15.34-0.17-2.58-0.57-3.75-1.72-4.98-0.82-0.89-2.16-1.95-2.98-2.37-0.83-0.43-5.53-1.6-10.46-2.62-4.93-1.01-11.92-2.76-15.54-3.89-3.61-1.12-8.72-3.04-11.35-4.26-2.63-1.21-7.07-3.7-9.86-5.51-3.03-1.97-7.63-5.87-11.4-9.66-3.48-3.49-7.73-8.5-9.45-11.13-1.72-2.63-4.1-6.8-5.29-9.26-1.19-2.47-3.93-8.92-6.09-14.34-2.16-5.42-5.26-12.01-6.88-14.64-1.62-2.63-4.71-6.55-6.87-8.7-2.15-2.16-5.53-4.83-7.5-5.94-1.97-1.11-5.2-2.65-7.17-3.42-1.97-0.77-5.2-1.78-7.17-2.24-1.97-0.47-6.54-1.13-10.16-1.48-3.61-0.34-12.15-0.63-18.97-0.63-10.62 0-12.4-0.13-12.4-0.9 0-0.49 0.47-1.01 1.05-1.15 0.57-0.15 2.12-0.54 3.43-0.88 1.32-0.33 5.55-1.02 9.41-1.53 3.86-0.5 12.2-1.2 18.53-1.55 6.32-0.34 13.18-1.02 15.23-1.49 2.06-0.48 5.42-1.57 7.47-2.43 2.06-0.87 6.43-3.21 9.71-5.21 3.29-2 7.73-4.28 9.86-5.06 2.98-1.09 5.07-1.42 8.97-1.4 3.58 0.01 6.13 0.39 8.66 1.28 1.97 0.69 4.8 2.03 6.27 2.99 1.48 0.96 4.06 3.16 5.73 4.9 1.67 1.74 4.25 4.92 5.73 7.05 1.47 2.14 3.53 4.49 4.58 5.23 1.04 0.74 2.76 1.34 3.83 1.34 1.07 0 2.82-0.54 3.89-1.19 1.29-0.79 4.58-5.17 9.79-13 4.32-6.49 12.76-18.92 18.76-27.63 6-8.71 13.79-20.41 17.3-26 3.51-5.58 7.36-11.85 8.56-13.93 1.19-2.08 2.37-3.56 2.62-3.29zm-104.73 77.62c0.02 0.8 0.45 1.85 0.94 2.35 0.49 0.49 1.65 0.89 2.57 0.89 0.92 0 2-0.33 2.4-0.74 0.4-0.41 0.72-1.36 0.72-2.1-0.01-0.73-0.28-1.88-0.61-2.53-0.4-0.79-1.2-1.2-2.35-1.2-0.96 0-2.19 0.42-2.73 0.94-0.54 0.52-0.96 1.59-0.94 2.39zm-6.79 13.4c2.49 2.47 5.82 6.1 7.41 8.07 1.58 1.97 3.83 5.33 5 7.47 1.17 2.13 3.64 7.78 5.5 12.55 1.85 4.76 4.62 11.08 6.15 14.04 1.53 2.96 3.98 6.99 5.43 8.96 1.46 1.97 4.15 5.17 5.98 7.1 1.83 1.93 5.21 4.9 7.51 6.61 2.3 1.7 5.93 4.12 8.07 5.37 2.14 1.25 6.44 3.29 9.56 4.55 3.12 1.25 10.25 3.36 15.84 4.69 5.58 1.33 12.44 3.17 15.23 4.08 2.79 0.91 6.49 2.54 8.22 3.6 2.32 1.44 3.14 1.71 3.14 1.05 0-0.49-0.88-2.58-1.96-4.63-1.08-2.06-3.19-5.35-4.7-7.32-1.51-1.97-4.06-4.81-5.67-6.3-1.6-1.49-4.66-3.95-6.79-5.46-2.14-1.51-7.11-4.69-11.06-7.06-3.94-2.38-8.92-5.6-11.05-7.17-2.14-1.57-6.17-5.26-8.97-8.2-2.83-2.98-6.3-7.44-7.85-10.08-1.53-2.6-3.77-7.15-4.98-10.11-1.21-2.96-3.05-6.86-4.08-8.66-1.03-1.81-3.63-5.05-5.77-7.21-2.99-3-5.25-4.58-9.58-6.71-3.46-1.69-7.49-3.14-10.31-3.69-2.55-0.51-6.92-0.92-9.71-0.92-2.79 0-5.08 0.21-5.09 0.45 0 0.25 2.04 2.47 4.53 4.93z"/>
</svg>